<svg xmlns="http://www.w3.org/2000/svg" width="689.43" height="615.881" viewBox="0 0 689.42981 615.88055"><g fill="none" fill-rule="evenodd"><path fill="#f7f8f9" d="M332.323 14.84c-17.34-11.468-39.583-13.023-58.35-4.08L54.465 115.359c-18.768 8.943-31.208 27.025-32.635 47.436L5.137 401.525c-1.427 20.41 8.375 40.049 25.716 51.516l202.812 134.13c17.34 11.468 39.584 13.024 58.35 4.08l219.507-104.598c18.768-8.943 31.208-27.026 32.635-47.437l16.694-238.729c1.427-20.41-8.375-40.049-25.715-51.517z"/><path fill="#03dd60" d="M180.34 459.737a15.615 15.615 0 0 0-15.226-1.065l-57.269 27.137c-4.896 2.32-8.14 7.014-8.511 12.313l-4.335 61.98c-.37 5.3 2.19 10.399 6.715 13.378l52.935 34.843a15.615 15.615 0 0 0 15.227 1.065l57.268-27.137c4.897-2.32 8.141-7.014 8.512-12.313l4.334-61.98c.37-5.3-2.19-10.399-6.715-13.378z" opacity=".501"/><path stroke="#03dd60" stroke-width="11.178" d="M473.18 46.676c-15.596-10.323-35.602-11.722-52.483-3.67l-197.44 94.178c-16.88 8.052-28.07 24.331-29.355 42.706l-15.029 214.918c-1.285 18.375 7.53 36.053 23.127 46.376l182.41 120.74c15.596 10.323 35.603 11.722 52.483 3.67l197.44-94.178c16.88-8.052 28.071-24.332 29.356-42.707l15.029-214.917c1.284-18.375-7.531-36.054-23.127-46.377z" opacity=".497"/></g></svg>