<svg xmlns="http://www.w3.org/2000/svg" width="678.827" height="662.881" viewBox="0 0 678.82739 662.88055"><g fill="none" fill-rule="evenodd"><path fill="#f7f8f9" d="M450.162 9.84c-17.34-11.468-39.583-13.023-58.35-4.08L172.304 110.359c-18.767 8.943-31.208 27.025-32.635 47.436l-16.694 238.73c-1.427 20.41 8.376 40.049 25.716 51.516l202.813 134.13c17.34 11.468 39.583 13.024 58.35 4.08l219.507-104.598c18.767-8.943 31.207-27.026 32.635-47.437l16.693-238.729c1.428-20.41-8.375-40.049-25.715-51.517z"/><path fill="#ff6e00" d="M428.18 511.737a15.615 15.615 0 0 0-15.227-1.065l-57.269 27.137c-4.896 2.32-8.14 7.014-8.511 12.313l-4.334 61.98c-.37 5.3 2.189 10.399 6.715 13.378l52.934 34.843a15.615 15.615 0 0 0 15.227 1.065l57.269-27.137c4.896-2.32 8.14-7.014 8.511-12.313l4.334-61.98c.37-5.3-2.189-10.399-6.715-13.378z" opacity=".501"/><path stroke="#ff6e00" stroke-width="11.178" d="M301.02 31.676c-15.597-10.323-35.603-11.722-52.484-3.67l-197.44 94.178c-16.88 8.052-28.07 24.331-29.355 42.706L6.712 379.808c-1.285 18.375 7.531 36.053 23.127 46.376l182.41 120.74c15.597 10.323 35.603 11.722 52.484 3.67l197.44-94.178c16.88-8.052 28.07-24.332 29.355-42.707l15.029-214.917c1.285-18.375-7.531-36.054-23.127-46.377z" opacity=".5"/></g></svg>