<svg xmlns="http://www.w3.org/2000/svg" width="680" height="641" viewBox="0 0 680 641"><g fill="none" fill-rule="evenodd"><path fill="#F7F8F9" d="M450.528 58.54c-17.34-11.468-39.584-13.023-58.351-4.08L172.671 159.059c-18.768 8.943-31.208 27.026-32.636 47.437l-16.693 238.729c-1.428 20.41 8.375 40.049 25.715 51.517l202.813 134.13c17.34 11.468 39.583 13.023 58.35 4.08l219.507-104.599c18.767-8.943 31.208-27.026 32.635-47.437l16.694-238.729c1.427-20.41-8.376-40.049-25.716-51.517L450.528 58.54z"/><path fill="#01A5FF" d="M479.545 3.437a15.615 15.615 0 0 0-15.226-1.064l-57.27 27.136c-4.896 2.32-8.14 7.014-8.51 12.314l-4.335 61.98c-.37 5.299 2.19 10.398 6.715 13.377l52.935 34.843a15.615 15.615 0 0 0 15.226 1.065l57.27-27.137c4.896-2.32 8.14-7.014 8.51-12.313l4.335-61.98c.37-5.3-2.19-10.399-6.715-13.378L479.545 3.437z" opacity=".301"/><path stroke="#01A5FF" stroke-width="12" d="M301.385 80.376c-15.596-10.323-35.602-11.722-52.483-3.67l-197.44 94.178c-16.88 8.052-28.07 24.332-29.356 42.707L7.078 428.508c-1.285 18.375 7.53 36.054 23.126 46.377l182.411 120.739c15.596 10.323 35.602 11.722 52.483 3.67l197.44-94.178c16.88-8.052 28.07-24.332 29.356-42.707l15.028-214.917c1.285-18.375-7.53-36.054-23.126-46.377L301.385 80.376z"/></g></svg>